<svg xmlns="http://www.w3.org/2000/svg" version="1.1" xmlns:xlink="http://www.w3.org/1999/xlink" xmlns:svgjs="http://svgjs.com/svgjs" width="1440" height="560" preserveAspectRatio="none" viewBox="0 0 1440 560"><g mask="url(&quot;#SvgjsMask1004&quot;)" fill="none"><rect width="1440" height="560" x="0" y="0" fill="rgba(224, 224, 224, 1)"></rect><path d="M459.7946986582324 388.99836873440165L502.6025933365538 447.91838102307736 569.5786644304067 354.2465328612574z" fill="rgba(221, 137, 26, 0.4)" class="triangle-float2"></path><path d="M557.6600569584976 207.5750175713789L499.6396838059047 158.89014385827005 455.6225598125379 270.26314044371384z" fill="rgba(221, 137, 26, 0.4)" class="triangle-float1"></path><path d="M191.44710131100192 318.4422027540161L278.60074540636174 295.08945420123496 255.2479968535806 207.93581010587513 168.0943527582208 231.28855865865626z" fill="rgba(221, 137, 26, 0.4)" class="triangle-float3"></path><path d="M978.5241387271121 9.669473710726326L823.3873524063073 1.5390992545452935 970.3937642709311 164.80626003153114z" fill="rgba(221, 137, 26, 0.4)" class="triangle-float3"></path><path d="M110.186,290.427C159.389,291.059,195.027,249.85,220.21,207.575C246.193,163.957,266.491,112.377,243.092,67.319C218.234,19.452,164.122,-4.598,110.186,-4.294C56.799,-3.993,3.851,21.114,-20.149,68.803C-42.361,112.94,-20.095,162.217,4.953,204.809C29.523,246.588,61.722,289.804,110.186,290.427" fill="rgba(221, 137, 26, 0.4)" class="triangle-float3"></path><path d="M1218.9445833056072 389.46789344809144L1343.065342427792 434.6441552230919 1388.2416042027926 310.52339610090695 1264.1208450806078 265.3471343259065z" fill="rgba(221, 137, 26, 0.4)" class="triangle-float1"></path><path d="M142.32131723214545 269.7190228465107L100.6621472451251 166.60895888740197 39.21125327303672 311.37819283353105z" fill="rgba(221, 137, 26, 0.4)" class="triangle-float2"></path><path d="M473.19247539422213 418.3757080842108L576.4758090482476 478.0063685721644 636.1064695362012 374.7230349181389 532.8231358821757 315.0923744301854z" fill="rgba(221, 137, 26, 0.4)" class="triangle-float1"></path><path d="M1324.4624611650083 338.2988577911002L1321.3070408373007 428.658273509393 1411.6664565555936 431.8136938371005 1414.8218768833012 341.45427811880774z" fill="rgba(221, 137, 26, 0.4)" class="triangle-float1"></path><path d="M313.8596623245423 227.79857579636973L415.68908576773765 97.46285734920596 183.5239438773785 125.96915235317437z" fill="rgba(221, 137, 26, 0.4)" class="triangle-float3"></path><path d="M1297.332887996301 127.3478268130992L1323.836233328989 64.90985800884187 1216.927607456259 56.373824411938315z" fill="rgba(221, 137, 26, 0.4)" class="triangle-float3"></path><path d="M167.3892903113542 434.0764945814075L63.19240061848892 314.2116845480428-56.672409414875744 418.4085742409081 47.524480277989525 538.2733842742728z" fill="rgba(221, 137, 26, 0.4)" class="triangle-float3"></path><path d="M507.43,547.775C554.672,547.62,593.854,514.032,616.013,472.309C636.762,433.241,637.386,385.594,613.25,348.523C590.985,314.325,548.19,303.571,507.43,305.532C470.409,307.313,438.21,326.925,417.886,357.92C394.989,392.84,379.789,435.26,397.602,473.027C417.849,515.955,459.967,547.931,507.43,547.775" fill="rgba(221, 137, 26, 0.4)" class="triangle-float1"></path><path d="M940.177,215.175C958.063,215.383,972.158,202.084,981.412,186.777C991.08,170.785,997.494,151.447,988.663,134.978C979.445,117.789,959.67,110.558,940.177,109.884C919.202,109.159,895.222,112.803,885.518,131.413C876.19,149.301,889.548,168.942,900.573,185.837C910.196,200.584,922.569,214.97,940.177,215.175" fill="rgba(221, 137, 26, 0.4)" class="triangle-float2"></path><path d="M288.8878781416172 299.2463914636178L312.1764621989044 218.0294470456313 178.70675354328108 223.70504316869378z" fill="rgba(221, 137, 26, 0.4)" class="triangle-float1"></path></g><defs><mask id="SvgjsMask1004"><rect width="1440" height="560" fill="#ffffff"></rect></mask><style>
            @keyframes float1 {
                0%{transform: translate(0, 0)}
                50%{transform: translate(-10px, 0)}
                100%{transform: translate(0, 0)}
            }

            .triangle-float1 {
                animation: float1 5s infinite;
            }

            @keyframes float2 {
                0%{transform: translate(0, 0)}
                50%{transform: translate(-5px, -5px)}
                100%{transform: translate(0, 0)}
            }

            .triangle-float2 {
                animation: float2 4s infinite;
            }

            @keyframes float3 {
                0%{transform: translate(0, 0)}
                50%{transform: translate(0, -10px)}
                100%{transform: translate(0, 0)}
            }

            .triangle-float3 {
                animation: float3 6s infinite;
            }
        </style></defs></svg>