<svg xmlns="http://www.w3.org/2000/svg" version="1.1" xmlns:xlink="http://www.w3.org/1999/xlink" xmlns:svgjs="http://svgjs.com/svgjs" width="1440" height="560" preserveAspectRatio="none" viewBox="0 0 1440 560"><g mask="url(&quot;#SvgjsMask1000&quot;)" fill="none"><rect width="1440" height="560" x="0" y="0" fill="rgba(224, 224, 224, 1)"></rect><path d="M629.593,221.223C650.38,221.123,670.715,210.94,680.145,192.415C688.903,175.21,680.962,155.863,671.402,139.09C661.714,122.093,649.125,104.845,629.593,103.723C608.468,102.509,589.109,115.422,578.543,133.755C567.991,152.064,567.543,174.652,578.195,192.903C588.763,211.011,608.627,221.323,629.593,221.223" fill="rgba(99, 215, 48, 0.4)" class="triangle-float2"></path><path d="M344.1045148150478 454.7564974889566L235.46589611029532 496.4589560256369 277.1683546469757 605.0975747303894 385.8069733517281 563.3951161937091z" fill="rgba(99, 215, 48, 0.4)" class="triangle-float1"></path><path d="M194.41820743826102 228.39635125321803L113.84489099933784 300.9448912373141 262.95435919494355 385.5305959036508z" fill="rgba(99, 215, 48, 0.4)" class="triangle-float3"></path><path d="M817.375,723.258C858.768,720.356,892.894,694.845,914.341,659.322C936.681,622.32,947.798,577.856,928.514,539.173C907.2,496.419,865.144,464.303,817.375,464.82C770.326,465.329,734.217,500.999,710.325,541.533C685.96,582.869,669.254,633.453,693.608,674.796C717.711,715.712,770.004,726.579,817.375,723.258" fill="rgba(99, 215, 48, 0.4)" class="triangle-float1"></path><path d="M313.55408187878743 277.89294136697595L218.57567053701916 357.5892912936577 298.2720204637009 452.5677026354259 393.2504318054692 372.8713527087442z" fill="rgba(99, 215, 48, 0.4)" class="triangle-float3"></path><path d="M866.297,627.802C898.473,628.058,933.788,621.89,949.761,593.958C965.658,566.159,951.849,533.347,936.331,505.335C920.133,476.096,899.654,445.451,866.297,443.298C829.983,440.954,796.011,463.184,778.63,495.155C761.958,525.823,765.859,563.523,785.106,592.645C802.534,619.015,834.689,627.55,866.297,627.802" fill="rgba(99, 215, 48, 0.4)" class="triangle-float3"></path><path d="M1155.1102868010748 135.28394323783584L1133.1295120191432 71.44713801640756 1048.3646915779666 136.3367028000192z" fill="rgba(99, 215, 48, 0.4)" class="triangle-float1"></path><path d="M428.694,468.117C462.376,468.467,495.752,452.29,511.098,422.305C525.415,394.331,512.884,362.398,496.534,335.561C481.031,310.114,458.441,288.792,428.694,287.044C395.821,285.113,362.321,298.388,345.481,326.686C328.304,355.55,332.166,391.676,349.199,420.625C365.975,449.139,395.613,467.774,428.694,468.117" fill="rgba(99, 215, 48, 0.4)" class="triangle-float3"></path><path d="M1315.961,61.517C1335.615,59.974,1351.497,47.16,1361.292,30.051C1371.015,13.068,1373.793,-6.972,1365.253,-24.579C1355.47,-44.748,1338.368,-64.075,1315.961,-63.403C1294.219,-62.751,1282.538,-40.534,1271.539,-21.768C1260.348,-2.674,1245.943,18.763,1256.359,38.291C1267.114,58.455,1293.178,63.306,1315.961,61.517" fill="rgba(99, 215, 48, 0.4)" class="triangle-float3"></path><path d="M162.651,368.187C179.58,367.593,194.873,358.69,203.494,344.109C212.281,329.248,213.673,310.998,205.437,295.825C196.818,279.947,180.694,269.802,162.651,268.868C142.752,267.838,121.554,273.793,111.439,290.961C101.206,308.33,105.385,330.357,116.526,347.158C126.535,362.252,144.551,368.822,162.651,368.187" fill="rgba(99, 215, 48, 0.4)" class="triangle-float2"></path><path d="M1418.3626879156184 307.9357531984024L1327.9289290526024 168.6799763791873 1188.673152233387 259.1137352422034 1279.1069110964033 398.3695120614185z" fill="rgba(99, 215, 48, 0.4)" class="triangle-float1"></path><path d="M1287.5938148535404 261.7886790402552L1178.0751888485233 201.08151334300365 1117.3680231512717 310.6001393480207 1226.8866491562887 371.3073050452723z" fill="rgba(99, 215, 48, 0.4)" class="triangle-float3"></path><path d="M879.782,329.447C917.361,328.553,954.399,313.654,973.248,281.132C992.147,248.525,987.071,208.736,968.872,175.733C949.938,141.396,918.889,114.491,879.782,111.632C835.24,108.375,787.347,122.233,764.858,160.818C742.25,199.607,753.003,248.667,778.288,285.767C800.52,318.388,840.317,330.385,879.782,329.447" fill="rgba(99, 215, 48, 0.4)" class="triangle-float3"></path><path d="M739.827,402.521C782.511,406.091,830.833,404.242,854.877,368.794C881.136,330.081,876.62,277.356,851.487,237.902C828.026,201.072,783.435,185.902,739.827,188.184C700.226,190.256,665.148,213.501,646.725,248.617C629.527,281.398,634.734,320.31,653.894,351.983C672.329,382.458,704.334,399.552,739.827,402.521" fill="rgba(99, 215, 48, 0.4)" class="triangle-float2"></path><path d="M978.62,511.05C999.52,510.592,1017.434,498.423,1028.728,480.831C1041.192,461.416,1050.262,437.178,1038.955,417.067C1027.496,396.686,1001.995,392.299,978.62,391.71C953.806,391.084,925.412,392.521,912.775,413.886C900.002,435.48,910.481,462.346,924.556,483.115C936.752,501.113,956.884,511.527,978.62,511.05" fill="rgba(99, 215, 48, 0.4)" class="triangle-float1"></path></g><defs><mask id="SvgjsMask1000"><rect width="1440" height="560" fill="#ffffff"></rect></mask><style>
            @keyframes float1 {
                0%{transform: translate(0, 0)}
                50%{transform: translate(-10px, 0)}
                100%{transform: translate(0, 0)}
            }

            .triangle-float1 {
                animation: float1 5s infinite;
            }

            @keyframes float2 {
                0%{transform: translate(0, 0)}
                50%{transform: translate(-5px, -5px)}
                100%{transform: translate(0, 0)}
            }

            .triangle-float2 {
                animation: float2 4s infinite;
            }

            @keyframes float3 {
                0%{transform: translate(0, 0)}
                50%{transform: translate(0, -10px)}
                100%{transform: translate(0, 0)}
            }

            .triangle-float3 {
                animation: float3 6s infinite;
            }
        </style></defs></svg>